<svg xmlns="http://www.w3.org/2000/svg" width="800" height="600" viewBox="0 0 800 600" role="img" aria-label="Вход в магазин Боярский Край в Химках">
  <defs>
    <linearGradient id="g" x1="0" y1="0" x2="0.6" y2="1"><stop offset="0%" stop-color="#6e1414"/><stop offset="100%" stop-color="#2a0a0a"/></linearGradient>
    <radialGradient id="gl" cx="50%" cy="28%" r="70%"><stop offset="0%" stop-color="#f0b070" stop-opacity="0.45"/><stop offset="60%" stop-color="#000" stop-opacity="0"/></radialGradient>
    <linearGradient id="gd" x1="0" y1="0" x2="1" y2="1"><stop offset="0%" stop-color="#f3d7a4"/><stop offset="100%" stop-color="#c9963f"/></linearGradient>
    <filter id="gr"><feTurbulence type="fractalNoise" baseFrequency="0.9" numOctaves="2" stitchTiles="stitch" result="n"/><feColorMatrix in="n" type="saturate" values="0"/><feComponentTransfer><feFuncA type="linear" slope="0.05"/></feComponentTransfer><feComposite operator="over" in2="SourceGraphic"/></filter>
  </defs>
  <rect width="800" height="600" fill="url(#g)"/><rect width="800" height="600" fill="url(#gl)"/>
  <rect x="220" y="180" width="360" height="360" rx="8" fill="#160606" opacity="0.55"/>
  <rect x="250" y="220" width="300" height="170" rx="6" fill="#0c0303" opacity="0.6"/>
  <rect x="250" y="220" width="300" height="170" rx="6" fill="url(#gl)" opacity="0.5"/>
  <g transform="translate(400 150)"><path d="M0 -42 L40 -22 L40 18 C40 50 22 70 0 80 C-22 70 -40 50 -40 18 L-40 -22 Z" fill="none" stroke="url(#gd)" stroke-width="2.5"/><text x="0" y="14" text-anchor="middle" font-family="Georgia, serif" font-size="26" font-weight="bold" fill="url(#gd)">БК</text></g>
  <text x="400" y="470" text-anchor="middle" font-family="Georgia, serif" font-size="34" font-weight="bold" fill="#fff6ea">Боярский Край</text>
  <rect width="800" height="600" filter="url(#gr)" opacity="0.5"/>
</svg>
