<svg xmlns="http://www.w3.org/2000/svg" width="800" height="600" viewBox="0 0 800 600" role="img" aria-label="Овощи и кофе-зона">
  <defs>
    <linearGradient id="g" x1="0" y1="0" x2="0.7" y2="1"><stop offset="0%" stop-color="#3f6b34"/><stop offset="100%" stop-color="#16280f"/></linearGradient>
    <radialGradient id="gl" cx="55%" cy="30%" r="70%"><stop offset="0%" stop-color="#e8d07a" stop-opacity="0.5"/><stop offset="60%" stop-color="#000" stop-opacity="0"/></radialGradient>
    <filter id="gr"><feTurbulence type="fractalNoise" baseFrequency="0.9" numOctaves="2" stitchTiles="stitch" result="n"/><feColorMatrix in="n" type="saturate" values="0"/><feComponentTransfer><feFuncA type="linear" slope="0.05"/></feComponentTransfer><feComposite operator="over" in2="SourceGraphic"/></filter>
  </defs>
  <rect width="800" height="600" fill="url(#g)"/><rect width="800" height="600" fill="url(#gl)"/>
  <g transform="translate(330 265)" fill="none" stroke="#f0ecd2" stroke-width="5" stroke-linecap="round" stroke-linejoin="round" opacity="0.92">
    <circle cx="0" cy="10" r="55"/><path d="M0 -45 C-10 -65 12 -72 18 -52"/>
  </g>
  <g transform="translate(470 265)" fill="none" stroke="#f0ecd2" stroke-width="5" stroke-linecap="round" stroke-linejoin="round" opacity="0.92">
    <path d="M-40 -25 h70 v30 a35 35 0 0 1 -70 0 Z"/><path d="M30 -15 h22 a16 16 0 0 1 0 32 h-10"/><path d="M-25 -45 c8 -10 -8 -14 0 -24 M0 -45 c8 -10 -8 -14 0 -24"/>
  </g>
  <text x="400" y="520" text-anchor="middle" font-family="sans-serif" font-size="26" fill="#f0ecd2" letter-spacing="2" opacity="0.85">ОВОЩИ И КОФЕ-ЗОНА</text>
  <rect width="800" height="600" filter="url(#gr)" opacity="0.5"/>
</svg>
